<svg width="93" height="14" viewBox="0 0 93 14" fill="none" xmlns="http://www.w3.org/2000/svg">
<g clip-path="url(#clip0_10_200)">
<path fill-rule="evenodd" clip-rule="evenodd" d="M6 10.9502L2.87713 12.5436C2.50946 12.7313 2.08567 12.4177 2.1575 12.0113L2.75 8.65836L0.254009 6.29695C-0.0502481 6.00909 0.113068 5.49713 0.527809 5.43864L3.99139 4.95016L5.55431 1.8765C5.73965 1.512 6.26035 1.512 6.44569 1.8765L8.00861 4.95016L11.4722 5.43864C11.8869 5.49713 12.0502 6.00909 11.746 6.29695L9.25 8.65836L9.8425 12.0113C9.91433 12.4177 9.49054 12.7313 9.12287 12.5436L6 10.9502Z" fill="#FFBA49"/>
<path fill-rule="evenodd" clip-rule="evenodd" d="M21 10.9502L17.8771 12.5436C17.5095 12.7313 17.0857 12.4177 17.1575 12.0113L17.75 8.65836L15.254 6.29695C14.9498 6.00909 15.1131 5.49713 15.5278 5.43864L18.9914 4.95016L20.5543 1.8765C20.7397 1.512 21.2603 1.512 21.4457 1.8765L23.0086 4.95016L26.4722 5.43864C26.8869 5.49713 27.0502 6.00909 26.746 6.29695L24.25 8.65836L24.8425 12.0113C24.9143 12.4177 24.4905 12.7313 24.1229 12.5436L21 10.9502Z" fill="#FFBA49"/>
<path fill-rule="evenodd" clip-rule="evenodd" d="M36 10.9502L32.8771 12.5436C32.5095 12.7313 32.0857 12.4177 32.1575 12.0113L32.75 8.65836L30.254 6.29695C29.9498 6.00909 30.1131 5.49713 30.5278 5.43864L33.9914 4.95016L35.5543 1.8765C35.7397 1.512 36.2603 1.512 36.4457 1.8765L38.0086 4.95016L41.4722 5.43864C41.8869 5.49713 42.0502 6.00909 41.746 6.29695L39.25 8.65836L39.8425 12.0113C39.9143 12.4177 39.4905 12.7313 39.1229 12.5436L36 10.9502Z" fill="#FFBA49"/>
<path fill-rule="evenodd" clip-rule="evenodd" d="M51 10.9502L47.8771 12.5436C47.5095 12.7313 47.0857 12.4177 47.1575 12.0113L47.75 8.65836L45.254 6.29695C44.9498 6.00909 45.1131 5.49713 45.5278 5.43864L48.9914 4.95016L50.5543 1.8765C50.7397 1.512 51.2603 1.512 51.4457 1.8765L53.0086 4.95016L56.4722 5.43864C56.8869 5.49713 57.0502 6.00909 56.746 6.29695L54.25 8.65836L54.8425 12.0113C54.9143 12.4177 54.4905 12.7313 54.1229 12.5436L51 10.9502Z" fill="#FFBA49"/>
<path fill-rule="evenodd" clip-rule="evenodd" d="M66 10.9502L62.8771 12.5436C62.5095 12.7313 62.0857 12.4177 62.1575 12.0113L62.75 8.65836L60.254 6.29695C59.9498 6.00909 60.1131 5.49713 60.5278 5.43864L63.9914 4.95016L65.5543 1.8765C65.7397 1.512 66.2603 1.512 66.4457 1.8765L68.0086 4.95016L71.4722 5.43864C71.8869 5.49713 72.0502 6.00909 71.746 6.29695L69.25 8.65836L69.8425 12.0113C69.9143 12.4177 69.4905 12.7313 69.1229 12.5436L66 10.9502Z" fill="#FFBA49"/>
<path d="M76.13 11.07C75.8633 10.2633 75.73 9.35667 75.73 8.35C75.73 7.34333 75.8633 6.43667 76.13 5.63C76.3967 4.81667 76.7433 4.13 77.17 3.57H78.06C77.6133 4.15667 77.25 4.86 76.97 5.68C76.6967 6.5 76.56 7.39 76.56 8.35C76.56 9.31 76.6967 10.2 76.97 11.02C77.25 11.84 77.6133 12.5433 78.06 13.13H77.17C76.7433 12.57 76.3967 11.8833 76.13 11.07ZM80.9261 11V4.93L79.2661 5.57V4.66L81.8761 3.65V11H80.9261ZM88.454 10.23C88.0207 10.8167 87.4273 11.11 86.674 11.11C85.9207 11.11 85.3273 10.8167 84.894 10.23C84.434 9.60333 84.204 8.65333 84.204 7.38C84.204 6.10667 84.434 5.15667 84.894 4.53C85.3273 3.94333 85.9207 3.65 86.674 3.65C87.4273 3.65 88.0207 3.94333 88.454 4.53C88.914 5.15667 89.144 6.10667 89.144 7.38C89.144 8.65333 88.914 9.60333 88.454 10.23ZM85.674 9.74C85.934 10.0667 86.2673 10.23 86.674 10.23C87.0807 10.23 87.414 10.0667 87.674 9.74C88.0207 9.29333 88.194 8.50667 88.194 7.38C88.194 6.25333 88.0207 5.46667 87.674 5.02C87.414 4.69333 87.0807 4.53 86.674 4.53C86.2673 4.53 85.934 4.69333 85.674 5.02C85.3273 5.46667 85.154 6.25333 85.154 7.38C85.154 8.50667 85.3273 9.29333 85.674 9.74ZM90.2056 13.13C90.6523 12.5433 91.0123 11.84 91.2856 11.02C91.5656 10.2 91.7056 9.31 91.7056 8.35C91.7056 7.39 91.5656 6.5 91.2856 5.68C91.0123 4.86 90.6523 4.15667 90.2056 3.57H91.0956C91.5223 4.13 91.869 4.81667 92.1356 5.63C92.4023 6.43667 92.5356 7.34333 92.5356 8.35C92.5356 9.35667 92.4023 10.2633 92.1356 11.07C91.869 11.8833 91.5223 12.57 91.0956 13.13H90.2056Z" fill="#9B9B9B"/>
</g>
<defs>
<clipPath id="clip0_10_200">
<rect width="93" height="14" fill="white"/>
</clipPath>
</defs>
</svg>
